HIERARCHY
ROOT Hips
{
	OFFSET 0.000000 71.427986 0.000000
	CHANNELS 6 Xposition Yposition Zposition Xrotation Yrotation Zrotation
	JOINT Pelvis
	{
		OFFSET 0.000000 0.000000 0.000000
		CHANNELS 3 Xrotation Yrotation Zrotation
		JOINT LeftUpLeg
		{
			OFFSET 6.797100 -2.508499 -1.318700
			CHANNELS 3 Xrotation Yrotation Zrotation
			JOINT LeftLeg
			{
				OFFSET 0.069008 -29.241863 0.690200
				CHANNELS 3 Xrotation Yrotation Zrotation
				JOINT LeftFoot
				{
					OFFSET -0.069008 -29.568123 -0.266800
					CHANNELS 3 Xrotation Yrotation Zrotation
					JOINT LeftToeBase
					{
						OFFSET 3.145500 -8.631000 16.059900
						CHANNELS 3 Xrotation Yrotation Zrotation
						End Site
						{
							OFFSET 0.000000 18.501587 0.000000
						}
					}
				}
			}
			JOINT Left_ShortSleeve
			{
				OFFSET 0.265923 -10.480953 1.153800
				CHANNELS 3 Xrotation Yrotation Zrotation
				End Site
				{
					OFFSET 1.725763 19.823879 0.000000
				}
			}
		}
		JOINT RightUpLeg
		{
			OFFSET -6.797100 -2.508499 -1.318700
			CHANNELS 3 Xrotation Yrotation Zrotation
			JOINT RightLeg
			{
				OFFSET -0.082453 -29.241932 0.688000
				CHANNELS 3 Xrotation Yrotation Zrotation
				JOINT RightFoot
				{
					OFFSET 0.082453 -29.568058 -0.264600
					CHANNELS 3 Xrotation Yrotation Zrotation
					JOINT RightToeBase
					{
						OFFSET -3.115300 -8.682800 16.113400
						CHANNELS 3 Xrotation Yrotation Zrotation
						End Site
						{
							OFFSET 0.000000 18.567114 0.000000
						}
					}
				}
			}
			JOINT Right_ShortSleeve
			{
				OFFSET -0.265923 -10.480953 1.153800
				CHANNELS 3 Xrotation Yrotation Zrotation
				End Site
				{
					OFFSET -1.725766 19.823910 0.000000
				}
			}
		}
	}
	JOINT Spine
	{
		OFFSET 0.000000 13.368103 0.470500
		CHANNELS 3 Xrotation Yrotation Zrotation
		JOINT Spine1
		{
			OFFSET 0.147000 13.837402 0.538800
			CHANNELS 3 Xrotation Yrotation Zrotation
			JOINT Spine2
			{
				OFFSET 0.168000 16.242897 -1.435500
				CHANNELS 3 Xrotation Yrotation Zrotation
				JOINT Neck
				{
					OFFSET 0.217200 18.631500 -1.679100
					CHANNELS 3 Xrotation Yrotation Zrotation
					JOINT Head
					{
						OFFSET 0.000000 6.599396 1.385900
						CHANNELS 3 Xrotation Yrotation Zrotation
						JOINT Hat
						{
							OFFSET -0.532200 27.220596 -10.096100
							CHANNELS 3 Xrotation Yrotation Zrotation
							End Site
							{
								OFFSET 0.000000 22.029861 0.000000
							}
						}
						JOINT HairD
						{
							OFFSET -10.777400 17.437393 -1.325900
							CHANNELS 3 Xrotation Yrotation Zrotation
							JOINT HairD1
							{
								OFFSET -3.290299 -11.051193 1.062200
								CHANNELS 3 Xrotation Yrotation Zrotation
								End Site
								{
									OFFSET 0.000000 11.579437 0.000000
								}
							}
						}
						JOINT HairB
						{
							OFFSET -10.777400 17.437393 1.467900
							CHANNELS 3 Xrotation Yrotation Zrotation
							JOINT HairB1
							{
								OFFSET -1.561200 -12.956299 3.590200
								CHANNELS 3 Xrotation Yrotation Zrotation
								End Site
								{
									OFFSET 0.000000 13.534866 0.000000
								}
							}
						}
						JOINT HairA
						{
							OFFSET 9.713100 17.437393 1.467900
							CHANNELS 3 Xrotation Yrotation Zrotation
							JOINT HairA1
							{
								OFFSET 1.561200 -12.956299 3.590200
								CHANNELS 3 Xrotation Yrotation Zrotation
								End Site
								{
									OFFSET 0.000000 13.534866 0.000000
								}
							}
						}
						JOINT HairC
						{
							OFFSET 9.713100 17.437393 -1.325900
							CHANNELS 3 Xrotation Yrotation Zrotation
							JOINT HairC1
							{
								OFFSET 3.290300 -11.051193 1.062200
								CHANNELS 3 Xrotation Yrotation Zrotation
								End Site
								{
									OFFSET 0.000000 11.579437 0.000000
								}
							}
						}
					}
				}
				JOINT LeftShoulder
				{
					OFFSET 5.101800 15.108002 -2.763700
					CHANNELS 3 Xrotation Yrotation Zrotation
					JOINT LeftArm
					{
						OFFSET 9.825497 2.506317 -1.597400
						CHANNELS 3 Xrotation Yrotation Zrotation
						JOINT LeftForeArm
						{
							OFFSET 21.966244 0.000000 0.000000
							CHANNELS 3 Xrotation Yrotation Zrotation
							JOINT LeftHand
							{
								OFFSET 33.879036 0.000000 0.000000
								CHANNELS 3 Xrotation Yrotation Zrotation
								JOINT LeftHandThumb1
								{
									OFFSET 6.715286 -2.359680 3.363841
									CHANNELS 3 Xrotation Yrotation Zrotation
									JOINT LeftHandThumb2
									{
										OFFSET 2.507072 -1.447464 1.447461
										CHANNELS 3 Xrotation Yrotation Zrotation
										JOINT LeftHandThumb3
										{
											OFFSET 2.898338 -1.673355 1.673357
											CHANNELS 3 Xrotation Yrotation Zrotation
											End Site
											{
												OFFSET -0.295959 3.727692 -0.131651
											}
										}
									}
								}
								JOINT LeftHandIndex1
								{
									OFFSET 14.190811 -0.254547 3.840278
									CHANNELS 3 Xrotation Yrotation Zrotation
									JOINT LeftHandIndex2
									{
										OFFSET 3.551727 0.000000 -0.000000
										CHANNELS 3 Xrotation Yrotation Zrotation
										JOINT LeftHandIndex3
										{
											OFFSET 2.894196 0.000000 0.000000
											CHANNELS 3 Xrotation Yrotation Zrotation
											End Site
											{
												OFFSET -1.000603 2.690872 0.366626
											}
										}
									}
								}
								JOINT LeftHandMiddle1
								{
									OFFSET 13.776489 0.000000 0.000000
									CHANNELS 3 Xrotation Yrotation Zrotation
									JOINT LeftHandMiddle2
									{
										OFFSET 3.438232 0.000000 0.000000
										CHANNELS 3 Xrotation Yrotation Zrotation
										JOINT LeftHandMiddle3
										{
											OFFSET 3.691551 0.000000 0.000000
											CHANNELS 3 Xrotation Yrotation Zrotation
											End Site
											{
												OFFSET -1.082298 3.499527 0.457670
											}
										}
									}
								}
								JOINT LeftHandRing1
								{
									OFFSET 13.966164 -0.268127 -3.067488
									CHANNELS 3 Xrotation Yrotation Zrotation
									JOINT LeftHandRing2
									{
										OFFSET 3.162567 0.000000 0.000000
										CHANNELS 3 Xrotation Yrotation Zrotation
										JOINT LeftHandRing3
										{
											OFFSET 3.324348 0.000000 0.000000
											CHANNELS 3 Xrotation Yrotation Zrotation
											End Site
											{
												OFFSET -0.861900 3.184998 0.405154
											}
										}
									}
								}
								JOINT LeftHandPinky1
								{
									OFFSET 13.131393 -0.168503 -5.746925
									CHANNELS 3 Xrotation Yrotation Zrotation
									JOINT LeftHandPinky2
									{
										OFFSET 2.849182 0.000000 0.000000
										CHANNELS 3 Xrotation Yrotation Zrotation
										JOINT LeftHandPinky3
										{
											OFFSET 2.805038 0.000000 0.000000
											CHANNELS 3 Xrotation Yrotation Zrotation
											End Site
											{
												OFFSET -0.882500 2.642609 0.325652
											}
										}
									}
								}
							}
							JOINT Left_Sleeve
							{
								OFFSET 6.592125 -0.646545 0.805568
								CHANNELS 3 Xrotation Yrotation Zrotation
								End Site
								{
									OFFSET -0.000179 20.275787 -0.000000
								}
							}
						}
					}
				}
				JOINT RightShoulder
				{
					OFFSET -5.731700 15.108002 -2.763700
					CHANNELS 3 Xrotation Yrotation Zrotation
					JOINT RightArm
					{
						OFFSET -9.825497 2.506317 -1.597400
						CHANNELS 3 Xrotation Yrotation Zrotation
						JOINT RightForeArm
						{
							OFFSET -21.966242 0.000000 0.000000
							CHANNELS 3 Xrotation Yrotation Zrotation
							JOINT RightHand
							{
								OFFSET -33.879032 0.000000 0.000000
								CHANNELS 3 Xrotation Yrotation Zrotation
								JOINT RightHandThumb1
								{
									OFFSET -6.715286 -2.359680 3.363841
									CHANNELS 3 Xrotation Yrotation Zrotation
									JOINT RightHandThumb2
									{
										OFFSET -2.507072 -1.447464 1.447461
										CHANNELS 3 Xrotation Yrotation Zrotation
										JOINT RightHandThumb3
										{
											OFFSET -2.898338 -1.673355 1.673357
											CHANNELS 3 Xrotation Yrotation Zrotation
											End Site
											{
												OFFSET 0.295959 3.727692 -0.131651
											}
										}
									}
								}
								JOINT RightHandIndex1
								{
									OFFSET -14.190811 -0.254547 3.840278
									CHANNELS 3 Xrotation Yrotation Zrotation
									JOINT RightHandIndex2
									{
										OFFSET -3.551727 0.000000 -0.000000
										CHANNELS 3 Xrotation Yrotation Zrotation
										JOINT RightHandIndex3
										{
											OFFSET -2.894196 0.000000 0.000000
											CHANNELS 3 Xrotation Yrotation Zrotation
											End Site
											{
												OFFSET 1.000603 2.690872 0.366626
											}
										}
									}
								}
								JOINT RightHandMiddle1
								{
									OFFSET -13.776489 0.000000 0.000000
									CHANNELS 3 Xrotation Yrotation Zrotation
									JOINT RightHandMiddle2
									{
										OFFSET -3.438232 0.000000 0.000000
										CHANNELS 3 Xrotation Yrotation Zrotation
										JOINT RightHandMiddle3
										{
											OFFSET -3.691551 0.000000 0.000000
											CHANNELS 3 Xrotation Yrotation Zrotation
											End Site
											{
												OFFSET 1.082298 3.499527 0.457670
											}
										}
									}
								}
								JOINT RightHandRing1
								{
									OFFSET -13.966164 -0.268127 -3.067488
									CHANNELS 3 Xrotation Yrotation Zrotation
									JOINT RightHandRing2
									{
										OFFSET -3.162567 0.000000 0.000000
										CHANNELS 3 Xrotation Yrotation Zrotation
										JOINT RightHandRing3
										{
											OFFSET -3.324348 0.000000 0.000000
											CHANNELS 3 Xrotation Yrotation Zrotation
											End Site
											{
												OFFSET 0.861900 3.184998 0.405154
											}
										}
									}
								}
								JOINT RightHandPinky1
								{
									OFFSET -13.131393 -0.168503 -5.746925
									CHANNELS 3 Xrotation Yrotation Zrotation
									JOINT RightHandPinky2
									{
										OFFSET -2.849182 0.000000 0.000000
										CHANNELS 3 Xrotation Yrotation Zrotation
										JOINT RightHandPinky3
										{
											OFFSET -2.805038 0.000000 0.000000
											CHANNELS 3 Xrotation Yrotation Zrotation
											End Site
											{
												OFFSET 0.882500 2.642609 0.325652
											}
										}
									}
								}
							}
							JOINT Right_Sleeve
							{
								OFFSET -6.592125 -0.646545 0.805568
								CHANNELS 3 Xrotation Yrotation Zrotation
								End Site
								{
									OFFSET 0.000179 20.275787 -0.000000
								}
							}
						}
					}
				}
				JOINT Bind_Right_JacketString
				{
					OFFSET -3.534800 11.969597 7.200700
					CHANNELS 3 Xrotation Yrotation Zrotation
					JOINT Bind_Right_JacketString1
					{
						OFFSET -0.319900 -6.102600 2.794100
						CHANNELS 3 Xrotation Yrotation Zrotation
						End Site
						{
							OFFSET 0.000000 6.719452 0.000000
						}
					}
				}
				JOINT Bind_Left_JacketString
				{
					OFFSET 2.904800 11.969597 7.200700
					CHANNELS 3 Xrotation Yrotation Zrotation
					JOINT Bind_Left_JacketString1
					{
						OFFSET 0.364800 -5.904503 3.186800
						CHANNELS 3 Xrotation Yrotation Zrotation
						End Site
						{
							OFFSET 0.000000 6.719513 0.000000
						}
					}
				}
				JOINT HairE
				{
					OFFSET 5.915200 17.612701 -11.592200
					CHANNELS 3 Xrotation Yrotation Zrotation
					JOINT HairE1
					{
						OFFSET 0.289200 -7.171898 -1.284500
						CHANNELS 3 Xrotation Yrotation Zrotation
						End Site
						{
							OFFSET 0.000000 7.291756 0.000000
						}
					}
				}
				JOINT HairF
				{
					OFFSET -0.864800 17.612701 -11.592200
					CHANNELS 3 Xrotation Yrotation Zrotation
					JOINT HairF1
					{
						OFFSET 0.000000 -14.087097 -2.127501
						CHANNELS 3 Xrotation Yrotation Zrotation
						End Site
						{
							OFFSET 0.000000 14.246841 0.000000
						}
					}
				}
				JOINT HairG
				{
					OFFSET -8.087700 17.612701 -11.592200
					CHANNELS 3 Xrotation Yrotation Zrotation
					JOINT HairG1
					{
						OFFSET -0.293600 -6.081398 -0.910100
						CHANNELS 3 Xrotation Yrotation Zrotation
						End Site
						{
							OFFSET 0.000000 6.156120 0.000000
						}
					}
				}
			}
		}
	}
	JOINT Pouch
	{
		OFFSET 0.000000 4.394501 10.847300
		CHANNELS 3 Xrotation Yrotation Zrotation
		End Site
		{
			OFFSET 0.000000 21.880577 0.000000
		}
	}
	JOINT Bag
	{
		OFFSET -13.229000 4.813004 -0.593300
		CHANNELS 3 Xrotation Yrotation Zrotation
		End Site
		{
			OFFSET 0.000000 21.880577 0.000000
		}
	}
	JOINT OccupyGuyFacialAnim_Joint
	{
		OFFSET 1.000000 -70.206398 -1.655000
		CHANNELS 3 Xrotation Yrotation Zrotation
		End Site
		{
			OFFSET 0.000000 21.880577 0.000000
		}
	}
}
MOTION
Frames: 4
Frame Time: 0.033333
0.945367 66.640526 -1.378325 3.150158 -6.714554 6.592578 -0.000000 0.000000 -0.000001 -14.584745 13.617977 -7.043841 38.735775 2.121327 -0.428612 -26.125392 -3.076662 4.050729 -0.000000 -0.000000 -0.000000 0.000001 -0.000000 -0.000000 -33.761120 -23.640909 -36.050568 36.856322 -3.063037 0.609022 -6.099790 -19.665429 15.477395 0.000000 -0.000003 0.000000 -0.000001 0.000000 -0.000001 0.801729 1.774438 -9.305345 -3.831547 0.442565 1.309872 -3.848626 -0.014088 -1.694750 6.347046 0.385719 -0.389421 -8.239266 4.142094 7.777975 0.000000 -0.000000 -0.000000 0.000000 -0.000000 -0.000000 0.000000 -0.000000 -0.000001 0.000000 -0.000000 -0.000000 0.000000 0.000000 -0.000000 0.000000 -0.000000 -0.000000 0.000000 0.000000 -0.000000 0.000000 -0.000000 -0.000000 0.000000 -0.000000 -0.000000 5.602931 -7.275205 -15.113860 23.835777 -39.623451 -50.368561 -0.000003 -11.466402 -0.000007 -41.913603 -5.149469 4.640988 -18.433936 -2.599628 -13.701066 8.075325 29.730270 2.751823 0.000000 0.000001 -0.000000 6.333604 16.376027 -10.936905 0.727224 2.828883 -28.828709 0.000004 0.000001 0.000004 2.227431 7.644958 -30.097068 1.084668 3.397495 -35.402940 -0.000001 0.000000 0.000001 -6.034776 -7.556338 -29.060085 1.261474 3.633040 -38.286113 -0.000004 -0.000001 -0.000002 -23.214725 -10.234554 -26.605791 0.892741 3.110324 -32.022717 0.000000 -0.000001 -0.000004 0.000000 0.000000 0.000000 15.682862 10.041885 18.095130 8.408965 19.901602 44.932714 -0.000005 13.335597 0.000017 -6.427902 9.783846 10.116293 -18.083283 1.424690 9.803323 8.191670 -31.584458 -3.345421 -0.000001 -0.000001 0.000000 4.945099 -10.049094 25.611913 0.580059 -2.252766 28.875096 -0.000003 -0.000001 0.000002 -4.391681 1.876492 38.001431 1.108828 -3.018294 40.335993 0.000003 -0.000001 0.000001 -10.930341 12.472647 35.544649 1.267073 -3.195039 43.255100 -0.000001 0.000001 0.000003 -27.056932 12.866664 31.869519 0.847161 -2.680231 35.075654 -0.000000 0.000002 0.000001 0.000001 0.000001 0.000001 0.000001 0.000000 0.000000 0.000001 -0.000000 0.000000 0.000001 0.000000 0.000000 0.000001 0.000000 0.000000 0.000001 0.000000 0.000000 0.000001 -0.000000 -0.000000 0.000001 0.000000 0.000000 0.000001 0.000000 0.000000 0.000001 0.000000 0.000000 0.000001 -0.000000 -0.000000 -0.000000 0.000000 -0.000001 -0.000000 0.000000 -0.000001 -0.000000 0.000000 -0.000001 
0.744834 66.742249 -1.393060 2.721412 -6.641594 6.165736 -0.000000 -0.000000 -0.000000 -14.184112 13.612815 -6.405897 38.581348 2.114741 -0.431081 -26.018644 -3.345798 3.809778 -0.000000 -0.000000 0.000000 0.000001 0.000000 -0.000000 -33.465038 -24.400009 -35.797643 37.329388 -3.031667 0.618456 -7.748646 -19.189707 14.857693 -0.000000 0.000001 0.000000 0.000001 -0.000004 -0.000003 1.596803 1.694890 -9.525494 -3.855081 0.443288 1.320696 -3.871867 -0.012319 -1.684627 5.877730 0.352532 -0.392110 -7.079943 3.085876 6.919520 -0.000000 0.000000 -0.000000 -0.000000 0.000000 -0.000000 -0.000000 0.000000 -0.000000 -0.000000 0.000000 -0.000000 -0.000000 0.000000 -0.000000 -0.000000 0.000000 -0.000000 -0.000000 0.000000 -0.000000 -0.000000 0.000000 -0.000000 -0.000000 0.000000 -0.000000 5.596591 -7.311442 -15.025187 24.185985 -39.857306 -50.109878 -0.000002 -11.459357 -0.000002 -41.954973 -5.135753 4.481684 -18.433936 -2.599633 -13.701065 8.095172 29.764745 2.741607 -0.000001 0.000001 -0.000000 6.340151 16.400350 -10.937756 0.728158 2.830567 -28.847570 0.000003 0.000001 0.000002 2.226505 7.643356 -30.097242 1.085716 3.398974 -35.420828 0.000001 -0.000001 -0.000003 -6.020044 -7.526214 -29.062011 1.263620 3.635731 -38.319735 -0.000001 0.000000 -0.000003 -23.209580 -10.190641 -26.634883 0.892872 3.110523 -32.024974 -0.000000 0.000000 -0.000004 0.000001 0.000000 0.000000 15.680323 10.090905 18.343912 11.958031 19.550110 44.542365 0.000001 17.075220 0.000037 -8.414814 7.578404 9.453217 -18.083276 1.424698 9.803282 8.191663 -31.584444 -3.345445 0.000001 -0.000001 0.000000 4.956016 -10.255555 26.507735 0.628329 -2.338073 30.080177 -0.000006 0.000002 -0.000001 -4.566351 1.830275 39.067705 1.141392 -3.056180 40.950703 0.000000 -0.000002 -0.000005 -11.349535 12.542060 36.414344 1.314742 -3.244900 44.103894 0.000002 -0.000002 0.000001 -27.635610 12.882882 32.853145 0.862140 -2.701418 35.394658 0.000002 0.000003 0.000001 0.000001 -0.000000 0.000001 -0.000000 -0.000000 -0.000000 -0.000000 0.000000 0.000000 -0.000000 -0.000000 -0.000000 -0.000000 -0.000000 -0.000000 -0.000000 -0.000000 -0.000000 -0.000000 0.000000 0.000000 -0.000000 -0.000000 -0.000000 -0.000000 -0.000000 -0.000000 -0.000000 -0.000000 -0.000000 -0.000000 0.000000 0.000000 -0.000000 -0.000000 -0.000000 -0.000000 -0.000000 -0.000000 -0.000000 -0.000000 -0.000000 
0.536077 66.809662 -1.560166 2.342247 -6.671479 5.906347 0.000000 -0.000000 0.000000 -14.033573 13.642275 -5.900573 38.583076 2.108665 -0.437501 -25.845221 -3.470569 3.600801 0.000000 -0.000000 -0.000000 0.000000 0.000000 -0.000000 -32.516389 -23.832186 -34.741860 37.974923 -2.997601 0.636585 -9.309548 -19.034342 14.450771 0.000000 -0.000000 -0.000000 -0.000000 0.000003 -0.000001 2.886145 1.638297 -9.879350 -3.884732 0.446248 1.350242 -3.901559 -0.005932 -1.655912 5.380748 0.363437 -0.621434 -6.785953 2.769385 4.398911 -0.000000 -0.000000 -0.000000 -0.000000 -0.000000 -0.000000 -0.000000 -0.000000 -0.000000 -0.000000 -0.000000 -0.000000 0.000000 -0.000000 -0.000000 -0.000000 -0.000000 -0.000000 0.000000 -0.000000 -0.000000 -0.000000 -0.000000 -0.000000 -0.000000 -0.000000 -0.000000 5.623749 -7.032020 -15.062350 25.336189 -40.912464 -48.649518 0.000006 -11.493998 0.000014 -42.207328 -5.000590 3.755389 -18.433936 -2.599632 -13.701067 8.124606 29.911929 2.740732 0.000000 0.000001 -0.000000 6.600094 16.769539 -11.595485 0.767673 2.901073 -29.638025 0.000001 0.000002 -0.000002 2.382865 7.814730 -31.052734 1.118672 3.444759 -35.972790 0.000001 -0.000001 -0.000003 -6.139207 -7.530961 -29.478349 1.335862 3.725153 -39.445302 -0.000003 -0.000001 -0.000004 -23.279339 -10.433661 -26.565925 0.909738 3.137299 -32.334549 -0.000001 0.000001 0.000003 0.000004 0.000000 -0.000000 15.608908 10.169400 18.806427 15.508254 17.771971 44.632042 -0.000004 27.601483 0.000031 -11.298166 2.979160 5.576687 -18.083279 1.424693 9.803306 8.191659 -31.584461 -3.345473 -0.000002 -0.000001 0.000000 4.950303 -10.574576 27.452897 0.689525 -2.440588 31.548125 -0.000003 0.000002 0.000004 -4.800429 1.864860 40.076039 1.153656 -3.070234 41.180027 0.000001 0.000000 0.000001 -11.786978 12.774160 37.062912 1.348512 -3.279323 44.697263 0.000001 -0.000001 -0.000003 -28.267674 13.127775 33.694495 0.853343 -2.689010 35.207716 -0.000000 0.000002 0.000002 0.000001 0.000001 0.000000 -0.000000 0.000000 0.000000 -0.000000 0.000000 0.000001 -0.000000 0.000000 0.000000 -0.000000 0.000000 0.000000 -0.000000 0.000000 0.000000 -0.000000 0.000000 0.000000 -0.000000 0.000000 0.000000 -0.000000 0.000000 0.000000 -0.000000 0.000000 0.000000 -0.000000 0.000000 0.000000 0.000000 -0.000000 0.000000 0.000000 -0.000000 0.000000 0.000000 -0.000000 0.000000 
0.215683 66.698967 -1.930343 2.121249 -7.188392 6.035684 -0.000000 0.000000 0.000000 -14.542800 13.959947 -5.517119 39.416380 2.105540 -0.460826 -25.939354 -3.263365 3.340101 -0.000000 0.000000 0.000000 0.000000 0.000000 -0.000000 -31.639533 -19.957550 -32.305490 41.362458 -2.659142 0.802343 -11.571665 -17.620976 11.484021 -0.000000 0.000001 0.000000 0.000001 -0.000002 -0.000001 4.638419 1.442558 -10.424656 -3.845266 0.439660 1.304947 -3.862367 -0.011870 -1.702003 4.896864 0.502049 -1.123445 -9.116671 3.760318 0.489476 -0.000000 0.000000 -0.000001 -0.000000 0.000000 -0.000001 -0.000000 0.000000 -0.000001 -0.000000 0.000000 -0.000000 -0.000000 0.000000 -0.000000 -0.000000 0.000000 -0.000000 -0.000000 0.000000 -0.000000 -0.000000 0.000000 -0.000001 -0.000000 0.000000 -0.000001 5.674342 -6.436188 -14.944469 28.483118 -43.024492 -45.003621 -0.000013 -12.230361 -0.000027 -43.147978 -4.992446 2.753211 -18.433941 -2.599631 -13.701065 8.156520 29.871211 2.710118 0.000002 0.000001 0.000001 6.623215 16.696372 -11.774911 0.747987 2.866224 -29.246552 0.000002 0.000001 -0.000002 2.478685 7.968902 -31.081531 1.112501 3.436262 -35.870063 0.000001 -0.000000 -0.000003 -6.047195 -7.329205 -29.522202 1.327791 3.715321 -39.320798 -0.000001 0.000002 0.000003 -23.046388 -10.295426 -26.175687 0.928021 3.165950 -32.667128 -0.000004 -0.000001 0.000003 0.000001 0.000000 -0.000001 15.526398 9.902518 18.846529 16.263765 15.152092 45.956528 0.000002 44.641259 0.000000 -9.667985 4.333516 -0.182368 -18.083284 1.424698 9.803321 8.191671 -31.584458 -3.345428 0.000001 -0.000001 -0.000000 4.998727 -10.677214 28.299687 0.730225 -2.505602 32.491268 -0.000002 0.000001 0.000002 -4.919704 1.723582 41.194739 1.208001 -3.131175 42.184642 0.000003 0.000002 0.000001 -12.202811 12.661246 38.141784 1.412663 -3.342805 45.808026 0.000001 0.000000 -0.000002 -28.819642 12.897842 34.790750 0.893198 -2.744559 36.048465 0.000001 -0.000000 0.000001 -0.000000 0.000002 -0.000001 -0.000000 -0.000001 -0.000000 -0.000000 -0.000000 0.000000 -0.000000 -0.000001 -0.000000 -0.000000 -0.000001 -0.000000 -0.000000 -0.000001 -0.000000 -0.000000 -0.000000 -0.000000 -0.000000 -0.000001 -0.000000 -0.000000 -0.000001 -0.000000 -0.000000 -0.000001 -0.000000 -0.000000 -0.000000 -0.000000 -0.000000 0.000000 0.000000 -0.000000 0.000000 0.000000 -0.000000 0.000000 0.000000 
